P3
4 3
255
213
213
213
255
255
255
255
255
255
143
143
143
210
210
210
170
170
170
205
205
205
45
45
45
219
219
219
128
128
128
42
42
42
224
224
224
