P3
4 3
255
255
249
223
10
255
255
234
255
255
198
153
153
255
255
220
42
188
180
255
255
215
170
92
55
157
122
229
10
10
138
175
52
52
255
255
234
