P3
4 3
255
240
224
198
0
240
240
209
240
240
173
128
128
235
235
195
17
163
155
240
235
190
145
67
30
132
97
204
0
0
113
150
27
27
240
240
209
