P3
4 3
255
239
239
239
255
255
255
255
255
255
143
143
143
250
250
250
178
178
178
250
250
250
82
82
82
112
112
112
0
0
0
42
42
42
255
255
255
