P3
4 3
255
188
143
143
224
255
255
0
255
255
255
239
213
160
82
45
255
250
205
32
178
170
250
250
210
255
255
224
165
42
42
0
0
128
147
112
219
