P3
4 3
255
235
235
235
170
170
170
244
244
244
158
158
158
236
236
236
126
126
126
236
236
236
95
95
95
159
159
159
42
42
42
83
83
83
244
244
244
