P3
4 3
255
240
240
240
200
200
200
248
248
248
152
152
152
247
247
247
146
146
146
247
247
247
95
95
95
127
127
127
9
9
9
68
68
68
252
252
252
