P3
4 3
255
255
255
255
0
0
0
224
224
224
188
188
188
250
250
250
32
32
32
255
255
255
160
160
160
147
147
147
0
0
0
165
165
165
255
255
255
