P3
4 3
255
255
239
213
0
255
255
224
255
255
188
143
143
250
250
210
32
178
170
255
250
205
160
82
45
147
112
219
0
0
128
165
42
42
255
255
224
