P3
4 3
255
255
255
255
255
255
255
255
255
255
188
188
188
250
250
250
178
178
178
255
255
255
160
160
160
219
219
219
128
128
128
165
165
165
255
255
255
